<svg width="315" height="126" viewBox="0 0 315 126" fill="none" xmlns="http://www.w3.org/2000/svg">
<path d="M101.536 32.1175C101.692 31.9751 101.692 32.1175 101.536 32.1175C104.181 20.866 101.692 11.3235 95.0021 5.76895C89.7128 1.35379 81.9343 -0.640159 74.467 0.499238C66.8441 1.49621 60.4657 5.62653 55.9542 11.8932C51.4427 5.62653 45.0644 1.49621 37.5971 0.356814C29.9742 -0.782584 22.1957 1.21136 16.9063 5.76895C10.2168 11.3235 7.72774 20.866 10.2168 31.9751C10.3724 32.6872 10.9947 33.1145 11.7725 33.1145H11.9281C12.3948 33.1145 12.706 32.9721 13.0171 32.6872L18.462 27.7024C18.6176 27.7024 18.6176 27.5599 18.6176 27.4175C19.2399 26.9902 19.8621 26.8478 20.64 26.8478C21.4178 26.8478 22.1957 27.1327 22.6624 27.7024C23.2847 28.272 23.5958 28.9842 23.5958 29.8387C23.5958 30.5508 23.2847 31.263 22.6624 31.6902C22.5068 31.8327 22.3513 31.9751 22.1957 32.2599L13.9505 39.9509C13.3282 40.5206 13.3282 41.3751 13.9505 41.9448C14.2616 42.2297 14.5728 42.3721 15.0395 42.3721C15.5062 42.3721 15.8173 42.2297 16.1285 41.9448L24.9959 33.6842L30.4409 28.6993C31.0631 28.1296 31.841 27.8448 32.7744 27.8448C33.5522 27.8448 34.3301 28.1296 34.7968 28.6993C35.4191 29.269 35.7302 29.9811 35.7302 30.8357C35.7302 31.5478 35.4191 32.2599 34.7968 32.6872C34.6412 32.8296 34.4857 32.9721 34.4857 33.2569L32.7744 34.966L18.3065 48.0691C17.6842 48.6388 17.6842 49.4933 18.3065 50.063C18.6176 50.3479 19.0843 50.4903 19.3954 50.4903C19.8621 50.4903 20.1733 50.3479 20.4844 50.063L34.9524 36.96C36.1969 35.8206 38.2193 35.963 39.3083 36.96C39.9306 37.5297 40.2417 38.2418 40.2417 39.0963C40.2417 39.8084 39.9306 40.5206 39.3083 40.9478L36.0414 43.9388L23.9069 55.0479C23.2847 55.6176 23.2847 56.4721 23.9069 57.0418C24.2181 57.3267 24.6848 57.4691 24.9959 57.4691C25.3071 57.4691 25.7738 57.3267 26.0849 57.0418L38.2193 45.9327C38.9972 45.2206 40.2417 44.9357 41.1751 45.2206C42.2641 45.5054 43.1975 46.36 43.3531 47.2145C43.6643 48.2115 43.3531 49.2085 42.5753 49.9206C42.4197 50.063 42.2641 50.2055 42.2641 50.3479L30.4409 61.1722C29.8186 61.7419 29.8186 62.5964 30.4409 63.1661C30.5964 63.3085 30.9076 63.4509 31.2187 63.5934C38.3749 69.5752 46.1534 74.8449 55.1764 79.8298C55.332 79.8298 55.6431 79.8298 55.9542 79.8298C56.2654 79.8298 56.5765 79.8298 56.7321 79.6874C65.9107 74.5601 74.0003 69.1479 81.312 63.0237L81.4676 62.8812C81.4676 62.7388 81.6232 62.7388 81.6232 62.5964C81.6232 62.454 81.6232 62.454 81.6232 62.3116C81.6232 62.1691 81.6232 62.1691 81.6232 62.0267C81.6232 61.8843 81.6232 61.8843 81.6232 61.7419C81.6232 61.5994 81.6232 61.5994 81.6232 61.457C81.6232 61.3146 81.4676 61.3146 81.4676 61.1722C81.4676 61.0297 81.312 61.0297 81.312 60.8873L69.3332 49.9206C68.5553 49.2085 68.2442 48.0691 68.5553 47.2145C68.8665 46.2176 69.7999 45.363 70.7333 45.2206C71.8223 44.9357 72.9113 45.2206 73.6891 45.9327C73.8447 46.0751 74.0003 46.2176 74.1558 46.2176L85.668 56.8994C85.9791 57.1843 86.4458 57.3267 86.757 57.3267C87.2237 57.3267 87.5348 57.1843 87.8459 56.8994C88.4682 56.3297 88.4682 55.4752 87.8459 54.9055L75.8671 43.7963L72.6001 40.8054C71.3556 39.666 71.5112 37.8145 72.6001 36.8175C73.2224 36.2478 74.0003 35.963 74.9337 35.963C75.7115 35.963 76.4894 36.2478 76.9561 36.6751L91.424 49.7782C91.7352 50.063 92.0463 50.2055 92.513 50.2055C92.9797 50.2055 93.2909 50.063 93.602 49.7782C94.2243 49.2085 94.2243 48.3539 93.602 47.7842L79.1341 34.6812L76.9561 32.5448C76.9561 32.4024 76.8005 32.4024 76.645 32.4024C75.7115 31.263 75.8671 29.6963 76.9561 28.6993C78.2006 27.5599 79.7563 27.5599 81.1565 28.4145C81.1565 28.5569 81.312 28.5569 81.312 28.6993L86.1347 33.1145C86.2903 33.2569 86.2902 33.3993 86.4458 33.5418L86.6014 33.6842C86.757 33.8266 86.9125 33.969 87.0681 33.969L95.6244 41.8024C95.9356 42.0872 96.4023 42.2297 96.7134 42.2297C97.0245 42.2297 97.4912 42.0872 97.8024 41.8024C98.4247 41.2327 98.4247 40.3781 97.8024 39.8084L88.3127 31.1205C87.5348 29.9811 87.8459 28.5569 88.9349 27.5599C90.3351 26.2781 92.2019 26.7054 93.2909 27.5599C93.4464 27.7024 93.602 27.7024 93.7576 27.8448L98.8914 32.5448C98.8914 32.5448 98.8914 32.5448 99.0469 32.5448C99.2025 32.5448 99.2025 32.6872 99.3581 32.6872C99.5136 32.6872 99.5136 32.8296 99.6692 32.8296H99.8248C99.9804 32.8296 99.9804 32.8296 100.136 32.8296C100.291 32.8296 100.447 32.8296 100.758 32.6872C100.758 32.6872 100.914 32.6872 100.914 32.5448C101.069 32.5448 101.225 32.4024 101.225 32.4024V32.2599C101.38 32.1175 101.38 32.1175 101.38 31.9751C101.536 32.2599 101.536 32.1175 101.536 32.1175ZM86.9125 25.7084C86.1347 26.4205 85.5124 27.4175 85.2013 28.272L83.9567 27.1327C83.8011 26.9902 83.8011 26.8478 83.6456 26.7054C81.1565 24.569 77.4228 24.7114 74.9337 26.8478C73.0669 28.5569 72.6002 31.1205 73.6891 33.2569C72.4446 33.5418 71.3556 33.969 70.4222 34.8236C68.0886 36.96 68.0886 40.2357 70.111 42.3721C68.0886 42.7994 66.3774 44.366 65.5995 46.36C64.9773 48.2115 65.5995 50.2055 66.9997 51.6297C66.9997 51.6297 66.9997 51.6297 66.9997 51.7721L67.1552 51.9146L77.8895 61.7419C71.3556 67.154 64.0438 71.9964 55.9542 76.6964C47.7091 72.1389 40.5529 67.154 34.019 61.7419L44.9088 51.7721C45.0644 51.6297 45.2199 51.4873 45.2199 51.3449C46.6201 49.9206 47.0868 47.9267 46.6201 46.2176C46.1534 44.366 44.4421 42.7994 42.2641 42.0872C43.042 41.2327 43.5087 40.0933 43.6643 38.8115C43.6643 37.2448 43.042 35.8206 41.7974 34.6812C40.864 33.8266 39.6194 33.2569 38.5305 33.1145C38.9972 32.4024 39.1527 31.5478 39.1527 30.6933C39.1527 29.1266 38.5305 27.7024 37.2859 26.563C36.1969 25.4236 34.6412 24.8539 33.0855 24.8539C31.3743 24.8539 29.8186 25.4236 28.574 26.563L26.8628 28.272C26.5516 27.2751 26.0849 26.4205 25.3071 25.7084C24.2181 24.569 22.6624 23.9993 21.1067 23.9993C19.3954 23.9993 17.8397 24.569 16.5952 25.7084C16.4396 25.8508 16.4396 25.9933 16.284 26.1357L13.3282 28.8417C11.9281 19.869 14.1061 12.3205 19.551 7.7629C24.0625 3.91743 31.0631 2.20833 37.5971 3.20531C44.2865 4.3447 50.5093 8.61745 54.5541 15.4538C55.1764 16.3084 56.7321 16.3084 57.3544 15.4538C61.3992 8.61745 67.6219 4.3447 74.9337 3.20531C81.4676 2.20833 88.3127 3.91743 92.9797 7.7629C98.4247 12.1781 100.603 19.7266 99.2025 28.6993L95.78 25.7084C95.6244 25.566 95.3133 25.4236 95.1577 25.4236C92.6686 23.572 89.0905 23.572 86.9125 25.7084Z" fill="#FF9999"/>
<circle cx="93" cy="106.957" r="14.9574" stroke="#FF9999" stroke-width="2"/>
<circle cx="93" cy="106.957" r="6.64894" fill="#FF9999"/>
<path d="M20.809 124.649L20.1753 123.875L20.1681 123.881L20.1611 123.887L20.809 124.649ZM1.80493 101.448L1.17125 100.675L1.16409 100.681L1.15704 100.687L1.80493 101.448ZM1.67904 103.007L0.91731 103.655L0.917311 103.655L1.67904 103.007ZM4.23242 107.552C4.59024 107.973 5.22136 108.024 5.64205 107.666C6.06274 107.309 6.11371 106.677 5.75589 106.257L4.23242 107.552ZM18.8843 124.493L18.1226 125.141L18.1226 125.141L18.8843 124.493ZM16.8002 120.499C16.4423 120.079 15.8112 120.028 15.3905 120.386C14.9698 120.743 14.9189 121.374 15.2767 121.795L16.8002 120.499ZM27.2156 118.108L20.1753 123.875L21.4427 125.422L28.483 119.655L27.2156 118.108ZM2.4386 102.222L9.47923 96.4547L8.21187 94.9075L1.17125 100.675L2.4386 102.222ZM0.917311 103.655L4.23242 107.552L5.75589 106.257L2.44078 102.359L0.917311 103.655ZM19.6461 123.845L16.8002 120.499L15.2767 121.795L18.1226 125.141L19.6461 123.845ZM1.15704 100.687C0.271155 101.44 0.163827 102.769 0.91731 103.655L2.44078 102.359C2.40293 102.315 2.40832 102.248 2.45282 102.21L1.15704 100.687ZM20.1611 123.887C20.0074 124.018 19.7768 123.999 19.6461 123.845L18.1226 125.141C18.969 126.136 20.4618 126.257 21.4569 125.41L20.1611 123.887ZM29.1738 98.4132C34.0717 104.393 33.195 113.21 27.2156 118.108L28.483 119.655C35.3168 114.058 36.3188 103.98 30.721 97.1458L29.1738 98.4132ZM30.721 97.1458C25.1233 90.312 15.0457 89.3097 8.21187 94.9075L9.47923 96.4547C15.4586 91.5569 24.276 92.4338 29.1738 98.4132L30.721 97.1458Z" fill="#FF9999"/>
<path d="M29.1702 97.383L55.6224 79.8298L81.8298 97.383" stroke="#FF9999" stroke-width="2"/>
<path d="M124.604 76V49.504H126.944L140.768 71.068V49.504H143.612V76H141.272L127.448 54.436V76H124.604ZM147.126 76L156.198 49.504H159.87L168.942 76H165.99L163.326 68.44H152.67L150.078 76H147.126ZM153.39 65.848H162.606L158.034 52.024L153.39 65.848ZM173.436 76V49.504H175.776L189.6 71.068V49.504H192.444V76H190.104L176.28 54.436V76H173.436ZM207.082 76.216C205.378 76.216 203.878 76.06 202.582 75.748C201.31 75.412 200.242 74.788 199.378 73.876C198.538 72.964 197.902 71.632 197.47 69.88C197.062 68.104 196.858 65.764 196.858 62.86C196.858 59.98 197.074 57.652 197.506 55.876C197.938 54.076 198.586 52.708 199.45 51.772C200.314 50.812 201.382 50.164 202.654 49.828C203.926 49.468 205.402 49.288 207.082 49.288C208.81 49.288 210.31 49.468 211.582 49.828C212.878 50.164 213.946 50.812 214.786 51.772C215.65 52.708 216.286 54.076 216.694 55.876C217.102 57.652 217.306 59.98 217.306 62.86C217.306 65.764 217.09 68.104 216.658 69.88C216.25 71.632 215.614 72.964 214.75 73.876C213.91 74.788 212.842 75.412 211.546 75.748C210.274 76.06 208.786 76.216 207.082 76.216ZM207.082 73.66C208.426 73.66 209.566 73.528 210.502 73.264C211.438 73 212.194 72.496 212.77 71.752C213.37 71.008 213.802 69.928 214.066 68.512C214.33 67.072 214.462 65.188 214.462 62.86C214.462 60.436 214.318 58.492 214.03 57.028C213.766 55.564 213.334 54.46 212.734 53.716C212.158 52.972 211.402 52.48 210.466 52.24C209.53 51.976 208.402 51.844 207.082 51.844C205.834 51.844 204.742 51.976 203.806 52.24C202.894 52.48 202.126 52.972 201.502 53.716C200.902 54.46 200.446 55.564 200.134 57.028C199.846 58.492 199.702 60.436 199.702 62.86C199.702 65.188 199.822 67.072 200.062 68.512C200.326 69.928 200.746 71.008 201.322 71.752C201.898 72.496 202.654 73 203.59 73.264C204.55 73.528 205.714 73.66 207.082 73.66ZM231.889 76V49.504H234.769V61.78H248.017V49.504H250.861V76H248.017V64.336H234.769V76H231.889ZM262.044 76.144C261.468 76.144 260.844 76.096 260.172 76C259.524 75.904 258.912 75.688 258.336 75.352C257.784 75.016 257.328 74.5 256.968 73.804C256.608 73.108 256.428 72.172 256.428 70.996V54.832C256.428 53.464 256.68 52.396 257.184 51.628C257.712 50.86 258.372 50.32 259.164 50.008C259.98 49.672 260.808 49.504 261.648 49.504C263.856 49.528 265.848 49.576 267.624 49.648C269.424 49.72 271.128 49.78 272.736 49.828V52.132H262.368C261.432 52.132 260.688 52.384 260.136 52.888C259.584 53.392 259.308 54.196 259.308 55.3V61.564L271.152 61.744V63.94L259.308 64.12V70.348C259.308 71.236 259.452 71.908 259.74 72.364C260.052 72.82 260.448 73.12 260.928 73.264C261.432 73.408 261.96 73.48 262.512 73.48H272.736V75.784C271.056 75.88 269.292 75.952 267.444 76C265.596 76.072 263.796 76.12 262.044 76.144ZM282.885 76C281.853 76 280.929 75.844 280.113 75.532C279.321 75.196 278.697 74.644 278.241 73.876C277.785 73.108 277.557 72.04 277.557 70.672V49.504H280.437V70.276C280.437 71.14 280.581 71.8 280.869 72.256C281.157 72.688 281.529 72.988 281.985 73.156C282.465 73.3 282.969 73.372 283.497 73.372H293.001V76H282.885ZM296.717 76V49.504H307.265C308.033 49.504 308.813 49.612 309.605 49.828C310.421 50.044 311.177 50.44 311.873 51.016C312.569 51.592 313.121 52.444 313.529 53.572C313.961 54.676 314.177 56.14 314.177 57.964C314.177 59.812 313.949 61.312 313.493 62.464C313.061 63.616 312.485 64.504 311.765 65.128C311.069 65.728 310.313 66.136 309.497 66.352C308.681 66.568 307.889 66.676 307.121 66.676C306.761 66.676 306.233 66.664 305.537 66.64C304.841 66.616 304.097 66.592 303.305 66.568C302.537 66.52 301.817 66.472 301.145 66.424C300.473 66.376 299.957 66.34 299.597 66.316V76H296.717ZM299.597 64.12H306.761C307.601 64.12 308.357 63.94 309.029 63.58C309.725 63.22 310.277 62.596 310.685 61.708C311.093 60.82 311.297 59.584 311.297 58C311.297 56.44 311.093 55.24 310.685 54.4C310.301 53.536 309.785 52.936 309.137 52.6C308.489 52.264 307.781 52.096 307.013 52.096H299.597V64.12Z" fill="#ffffff"/>
</svg>
